<?xml version="1.0" encoding="utf-8"?>
<!-- Generator: Adobe Illustrator 22.0.1, SVG Export Plug-In . SVG Version: 6.00 Build 0)  -->
<svg version="1.1" id="Layer_1" xmlns="http://www.w3.org/2000/svg" xmlns:xlink="http://www.w3.org/1999/xlink" x="0px" y="0px"
	 viewBox="0 0 500 500" style="enable-background:new 0 0 500 500;" xml:space="preserve">
<style type="text/css">
	.st0{fill:#FFFFFF;}
</style>
<g>
	<path class="st0" d="M250,490c-64.1,0-124.4-25-169.7-70.3C35,374.4,10,314.1,10,250S35,125.6,80.3,80.3S185.9,10,250,10
		s124.4,25,169.7,70.3C465,125.6,490,185.9,490,250s-25,124.4-70.3,169.7C374.4,465,314.1,490,250,490z"/>
	<path d="M250,20c31.1,0,61.2,6.1,89.5,18.1c27.4,11.6,52,28.2,73.1,49.3s37.7,45.7,49.3,73.1c12,28.3,18.1,58.5,18.1,89.5
		s-6.1,61.2-18.1,89.5c-11.6,27.4-28.2,52-49.3,73.1s-45.7,37.7-73.1,49.3c-28.3,12-58.5,18.1-89.5,18.1s-61.2-6.1-89.5-18.1
		c-27.4-11.6-52-28.2-73.1-49.3s-37.7-45.7-49.3-73.1C26.1,311.2,20,281.1,20,250s6.1-61.2,18.1-89.5c11.6-27.4,28.2-52,49.3-73.1
		s45.7-37.7,73.1-49.3C188.8,26.1,218.9,20,250,20 M250,0C111.9,0,0,111.9,0,250s111.9,250,250,250s250-111.9,250-250S388.1,0,250,0
		L250,0z"/>
</g>
</svg>
